<svg width="60" height="60" xmlns="http://www.w3.org/2000/svg">
  <defs>
    <pattern id="chatPattern" x="0" y="0" width="60" height="60" patternUnits="userSpaceOnUse">
      <!-- Background -->
      <rect width="60" height="60" fill="#ffffff" opacity="0"/>
      
      <!-- Geometric shapes -->
      <!-- Circles -->
      <circle cx="15" cy="15" r="2" fill="#000000" opacity="0.04"/>
      <circle cx="45" cy="45" r="2" fill="#000000" opacity="0.04"/>
      
      <!-- Small diamonds -->
      <polygon points="30,8 34,12 30,16 26,12" fill="#000000" opacity="0.03"/>
      <polygon points="8,30 12,34 8,38 4,34" fill="#000000" opacity="0.03"/>
      <polygon points="52,22 56,26 52,30 48,26" fill="#000000" opacity="0.03"/>
      
      <!-- Hexagons -->
      <polygon points="30,25 35,28 35,34 30,37 25,34 25,28" fill="none" stroke="#000000" stroke-width="0.5" opacity="0.025"/>
      
      <!-- Lines and connectors -->
      <line x1="15" y1="15" x2="25" y2="25" stroke="#000000" stroke-width="0.3" opacity="0.02"/>
      <line x1="35" y1="35" x2="45" y2="45" stroke="#000000" stroke-width="0.3" opacity="0.02"/>
      
      <!-- Small dots -->
      <circle cx="20" cy="40" r="1" fill="#000000" opacity="0.03"/>
      <circle cx="40" cy="20" r="1" fill="#000000" opacity="0.03"/>
      <circle cx="50" cy="10" r="1" fill="#000000" opacity="0.03"/>
      <circle cx="10" cy="50" r="1" fill="#000000" opacity="0.03"/>
      
      <!-- Triangular elements -->
      <polygon points="45,8 48,14 42,14" fill="#000000" opacity="0.025"/>
      <polygon points="15,46 18,52 12,52" fill="#000000" opacity="0.025"/>
    </pattern>
  </defs>
  
  <rect width="100%" height="100%" fill="url(#chatPattern)"/>
</svg>