<svg width="80" height="80" xmlns="http://www.w3.org/2000/svg">
  <defs>
    <pattern id="respPattern" x="0" y="0" width="80" height="80" patternUnits="userSpaceOnUse">
      <!-- Background -->
      <rect width="80" height="80" fill="#ffffff" opacity="0"/>
      
      <!-- Complex geometric shapes -->
      <!-- Large hexagon outline -->
      <polygon points="40,10 55,20 55,35 40,45 25,35 25,20" fill="none" stroke="#000000" stroke-width="0.4" opacity="0.02"/>
      
      <!-- Diamond grid -->
      <polygon points="20,20 25,25 20,30 15,25" fill="#000000" opacity="0.025"/>
      <polygon points="60,20 65,25 60,30 55,25" fill="#000000" opacity="0.025"/>
      <polygon points="20,60 25,65 20,70 15,65" fill="#000000" opacity="0.025"/>
      <polygon points="60,60 65,65 60,70 55,65" fill="#000000" opacity="0.025"/>
      
      <!-- Circles at intersections -->
      <circle cx="40" cy="40" r="3" fill="none" stroke="#000000" stroke-width="0.3" opacity="0.03"/>
      <circle cx="15" cy="15" r="1.5" fill="#000000" opacity="0.04"/>
      <circle cx="65" cy="15" r="1.5" fill="#000000" opacity="0.04"/>
      <circle cx="15" cy="65" r="1.5" fill="#000000" opacity="0.04"/>
      <circle cx="65" cy="65" r="1.5" fill="#000000" opacity="0.04"/>
      
      <!-- Connecting lines -->
      <line x1="25" y1="20" x2="55" y2="20" stroke="#000000" stroke-width="0.2" opacity="0.02"/>
      <line x1="25" y1="35" x2="55" y2="35" stroke="#000000" stroke-width="0.2" opacity="0.02"/>
      <line x1="25" y1="20" x2="25" y2="35" stroke="#000000" stroke-width="0.2" opacity="0.02"/>
      <line x1="55" y1="20" x2="55" y2="35" stroke="#000000" stroke-width="0.2" opacity="0.02"/>
      
      <!-- Small decorative elements -->
      <polygon points="10,40 13,43 10,46 7,43" fill="#000000" opacity="0.02"/>
      <polygon points="70,40 73,43 70,46 67,43" fill="#000000" opacity="0.02"/>
      <polygon points="40,10 43,13 40,16 37,13" fill="#000000" opacity="0.02"/>
      <polygon points="40,70 43,73 40,76 37,73" fill="#000000" opacity="0.02"/>
      
      <!-- Tiny dots for texture -->
      <circle cx="30" cy="30" r="0.8" fill="#000000" opacity="0.03"/>
      <circle cx="50" cy="30" r="0.8" fill="#000000" opacity="0.03"/>
      <circle cx="30" cy="50" r="0.8" fill="#000000" opacity="0.03"/>
      <circle cx="50" cy="50" r="0.8" fill="#000000" opacity="0.03"/>
    </pattern>
  </defs>
  
  <rect width="100%" height="100%" fill="url(#respPattern)"/>
</svg>