<?xml version="1.0" encoding="UTF-8"?><svg xmlns="http://www.w3.org/2000/svg" xmlns:xlink="http://www.w3.org/1999/xlink" contentScriptType="text/ecmascript" width="88.0px" zoomAndPan="magnify" contentStyleType="text/css" viewBox="1.92 0.0 28.16 32.0" height="100.0px" preserveAspectRatio="none" version="1.0">
    <defs>
        <style type="text/css" xml:space="preserve">.cls-1{fill:none;stroke:#5FC564;stroke-linejoin:round;stroke-width:2px;}</style>
    </defs><title>
        35-Notification
    </title>
    <g id="_35-Notification" data-name="35-Notification">
        <path class="cls-1" fill="#5FC564" d="M27,23a2,2,0,0,1,2,2,2,2,0,0,1-2,2H5a2,2,0,0,1-2-2,2,2,0,0,1,2-2Z"/>
        <path class="cls-1" fill="#5FC564" d="M12,27a4,4,0,0,0,8,0"/>
        <path class="cls-1" fill="#5FC564" d="M5,23c0-7,2-7,2-13a9,9,0,0,1,18,0c0,6,2,6,2,13"/>
        <path class="cls-1" fill="#5FC564" d="M21,10a5,5,0,0,0-5-5"/>
        <line y2="14" fill="#5FC564" x1="21" class="cls-1" x2="21" y1="12"/>
        <path class="cls-1" fill="#5FC564" d="M24,1s5,2,5,9"/>
        <path class="cls-1" fill="#5FC564" d="M8,1S3,3,3,10"/>
    </g>
</svg>