<?xml version="1.0" encoding="UTF-8"?><!-- Generated by IcoMoon.io --><svg xmlns="http://www.w3.org/2000/svg" xmlns:xlink="http://www.w3.org/1999/xlink" contentScriptType="text/ecmascript" width="60.0px" zoomAndPan="magnify" contentStyleType="text/css" height="62.0px" viewBox="30.11764705882353 0.0 451.7647058823529 512.0" preserveAspectRatio="none" version="1.1">
    <g id="icomoon-ignore">
    </g>
    <path fill="#5DAF84" d="M96 0v512h384v-512h-384zM288 128.165c35.255 0 63.835 28.58 63.835 63.835s-28.58 63.835-63.835 63.835-63.835-28.58-63.835-63.835 28.58-63.835 63.835-63.835v0zM384 384h-192v-32c0-35.348 28.653-64 64-64v0h64c35.348 0 64 28.652 64 64v32z"/>
    <path fill="#5DAF84" d="M32 32h48v96h-48v-96z"/>
    <path fill="#5DAF84" d="M32 160h48v96h-48v-96z"/>
    <path fill="#5DAF84" d="M32 288h48v96h-48v-96z"/>
    <path fill="#5DAF84" d="M32 416h48v96h-48v-96z"/>
</svg>